<mxfile host="app.diagrams.net" agent="Mozilla/5.0 (Windows NT 10.0; Win64; x64) AppleWebKit/537.36 (KHTML, like Gecko) Chrome/131.0.0.0 Safari/537.36 Edg/131.0.0.0" version="26.0.16">
  <diagram name="第 1 页" id="1xXzg4hlqvbpY5tBiZtY">
    <mxGraphModel dx="1810" dy="522" grid="1" gridSize="10" guides="1" tooltips="1" connect="1" arrows="1" fold="1" page="1" pageScale="1" pageWidth="827" pageHeight="1169" math="0" shadow="0">
      <root>
        <mxCell id="0" />
        <mxCell id="1" parent="0" />
        <mxCell id="h_VeKxa4T9KLT9ug-Xt3-11" value="Base ID" style="rounded=0;whiteSpace=wrap;html=1;" vertex="1" parent="1">
          <mxGeometry x="110" y="630" width="120" height="20" as="geometry" />
        </mxCell>
        <mxCell id="h_VeKxa4T9KLT9ug-Xt3-12" value="SOF" style="rounded=0;whiteSpace=wrap;html=1;verticalAlign=middle;horizontal=0;fillStyle=auto;" vertex="1" parent="1">
          <mxGeometry x="90" y="610" width="20" height="90" as="geometry" />
        </mxCell>
        <mxCell id="h_VeKxa4T9KLT9ug-Xt3-13" value="Bit 28" style="rounded=0;whiteSpace=wrap;html=1;verticalAlign=middle;horizontal=0;align=left;spacingLeft=8;" vertex="1" parent="1">
          <mxGeometry x="110" y="650" width="20" height="50" as="geometry" />
        </mxCell>
        <mxCell id="h_VeKxa4T9KLT9ug-Xt3-14" value="Bit 27" style="rounded=0;whiteSpace=wrap;html=1;verticalAlign=middle;horizontal=0;align=left;spacingLeft=8;" vertex="1" parent="1">
          <mxGeometry x="130" y="650" width="20" height="50" as="geometry" />
        </mxCell>
        <mxCell id="h_VeKxa4T9KLT9ug-Xt3-15" value="..." style="rounded=0;whiteSpace=wrap;html=1;verticalAlign=middle;horizontal=1;" vertex="1" parent="1">
          <mxGeometry x="150" y="650" width="40" height="50" as="geometry" />
        </mxCell>
        <mxCell id="h_VeKxa4T9KLT9ug-Xt3-16" value="Bit 19" style="rounded=0;whiteSpace=wrap;html=1;verticalAlign=middle;horizontal=0;align=left;spacingLeft=8;" vertex="1" parent="1">
          <mxGeometry x="190" y="650" width="20" height="50" as="geometry" />
        </mxCell>
        <mxCell id="h_VeKxa4T9KLT9ug-Xt3-17" value="Bit 18" style="rounded=0;whiteSpace=wrap;html=1;verticalAlign=middle;horizontal=0;align=left;spacingLeft=8;" vertex="1" parent="1">
          <mxGeometry x="210" y="650" width="20" height="50" as="geometry" />
        </mxCell>
        <mxCell id="h_VeKxa4T9KLT9ug-Xt3-18" value="RTR" style="rounded=0;whiteSpace=wrap;html=1;verticalAlign=middle;horizontal=0;align=left;spacingBottom=0;spacingTop=0;spacingLeft=8;spacingRight=0;spacing=2;" vertex="1" parent="1">
          <mxGeometry x="230" y="630" width="20" height="70" as="geometry" />
        </mxCell>
        <mxCell id="h_VeKxa4T9KLT9ug-Xt3-19" value="IDE" style="rounded=0;whiteSpace=wrap;html=1;verticalAlign=middle;horizontal=0;align=left;spacingLeft=8;" vertex="1" parent="1">
          <mxGeometry x="250" y="630" width="20" height="70" as="geometry" />
        </mxCell>
        <mxCell id="h_VeKxa4T9KLT9ug-Xt3-20" value="FDF" style="rounded=0;whiteSpace=wrap;html=1;verticalAlign=middle;horizontal=0;align=left;spacingRight=0;spacingLeft=8;" vertex="1" parent="1">
          <mxGeometry x="270" y="630" width="20" height="70" as="geometry" />
        </mxCell>
        <mxCell id="h_VeKxa4T9KLT9ug-Xt3-21" value="Bit 3" style="rounded=0;whiteSpace=wrap;html=1;verticalAlign=middle;horizontal=0;align=left;spacingLeft=8;" vertex="1" parent="1">
          <mxGeometry x="290" y="650" width="20" height="50" as="geometry" />
        </mxCell>
        <mxCell id="h_VeKxa4T9KLT9ug-Xt3-22" value="Bit 2" style="rounded=0;whiteSpace=wrap;html=1;verticalAlign=middle;horizontal=0;align=left;spacingLeft=8;" vertex="1" parent="1">
          <mxGeometry x="310" y="650" width="20" height="50" as="geometry" />
        </mxCell>
        <mxCell id="h_VeKxa4T9KLT9ug-Xt3-23" value="DLC" style="rounded=0;whiteSpace=wrap;html=1;" vertex="1" parent="1">
          <mxGeometry x="290" y="630" width="80" height="20" as="geometry" />
        </mxCell>
        <mxCell id="h_VeKxa4T9KLT9ug-Xt3-24" value="Bit 1" style="rounded=0;whiteSpace=wrap;html=1;verticalAlign=middle;horizontal=0;align=left;spacingLeft=8;" vertex="1" parent="1">
          <mxGeometry x="330" y="650" width="20" height="50" as="geometry" />
        </mxCell>
        <mxCell id="h_VeKxa4T9KLT9ug-Xt3-25" value="Bit 0" style="rounded=0;whiteSpace=wrap;html=1;verticalAlign=middle;horizontal=0;align=left;spacingLeft=8;" vertex="1" parent="1">
          <mxGeometry x="350" y="650" width="20" height="50" as="geometry" />
        </mxCell>
        <mxCell id="h_VeKxa4T9KLT9ug-Xt3-26" value="Arbitration field" style="rounded=0;whiteSpace=wrap;html=1;" vertex="1" parent="1">
          <mxGeometry x="110" y="610" width="140" height="20" as="geometry" />
        </mxCell>
        <mxCell id="h_VeKxa4T9KLT9ug-Xt3-27" value="Control field" style="rounded=0;whiteSpace=wrap;html=1;" vertex="1" parent="1">
          <mxGeometry x="250" y="610" width="120" height="20" as="geometry" />
        </mxCell>
        <mxCell id="h_VeKxa4T9KLT9ug-Xt3-28" value="Data field" style="rounded=0;whiteSpace=wrap;html=1;" vertex="1" parent="1">
          <mxGeometry x="370" y="610" width="120" height="20" as="geometry" />
        </mxCell>
        <mxCell id="h_VeKxa4T9KLT9ug-Xt3-29" value="Byte 0" style="rounded=0;whiteSpace=wrap;html=1;verticalAlign=middle;horizontal=0;align=left;spacingLeft=8;" vertex="1" parent="1">
          <mxGeometry x="370" y="630" width="20" height="70" as="geometry" />
        </mxCell>
        <mxCell id="h_VeKxa4T9KLT9ug-Xt3-30" value="Byte 1" style="rounded=0;whiteSpace=wrap;html=1;verticalAlign=middle;horizontal=0;align=left;spacingLeft=8;" vertex="1" parent="1">
          <mxGeometry x="390" y="630" width="20" height="70" as="geometry" />
        </mxCell>
        <mxCell id="h_VeKxa4T9KLT9ug-Xt3-31" value="..." style="rounded=0;whiteSpace=wrap;html=1;verticalAlign=middle;horizontal=1;" vertex="1" parent="1">
          <mxGeometry x="410" y="630" width="40" height="70" as="geometry" />
        </mxCell>
        <mxCell id="h_VeKxa4T9KLT9ug-Xt3-32" value="Byte n-1" style="rounded=0;whiteSpace=wrap;html=1;verticalAlign=middle;horizontal=0;align=left;spacingLeft=8;" vertex="1" parent="1">
          <mxGeometry x="450" y="630" width="20" height="70" as="geometry" />
        </mxCell>
        <mxCell id="h_VeKxa4T9KLT9ug-Xt3-33" value="Byte n" style="rounded=0;whiteSpace=wrap;html=1;verticalAlign=middle;horizontal=0;align=left;spacingLeft=8;" vertex="1" parent="1">
          <mxGeometry x="470" y="630" width="20" height="70" as="geometry" />
        </mxCell>
        <mxCell id="h_VeKxa4T9KLT9ug-Xt3-34" value="CRC field" style="rounded=0;whiteSpace=wrap;html=1;" vertex="1" parent="1">
          <mxGeometry x="490" y="610" width="140" height="20" as="geometry" />
        </mxCell>
        <mxCell id="h_VeKxa4T9KLT9ug-Xt3-35" value="CRC sequence" style="rounded=0;whiteSpace=wrap;html=1;" vertex="1" parent="1">
          <mxGeometry x="490" y="630" width="120" height="20" as="geometry" />
        </mxCell>
        <mxCell id="h_VeKxa4T9KLT9ug-Xt3-36" value="Bit 14" style="rounded=0;whiteSpace=wrap;html=1;verticalAlign=middle;horizontal=0;align=left;spacingLeft=8;" vertex="1" parent="1">
          <mxGeometry x="490" y="650" width="20" height="50" as="geometry" />
        </mxCell>
        <mxCell id="h_VeKxa4T9KLT9ug-Xt3-37" value="Bit 13" style="rounded=0;whiteSpace=wrap;html=1;verticalAlign=middle;horizontal=0;align=left;spacingLeft=8;" vertex="1" parent="1">
          <mxGeometry x="510" y="650" width="20" height="50" as="geometry" />
        </mxCell>
        <mxCell id="h_VeKxa4T9KLT9ug-Xt3-38" value="..." style="rounded=0;whiteSpace=wrap;html=1;verticalAlign=middle;horizontal=1;" vertex="1" parent="1">
          <mxGeometry x="530" y="650" width="40" height="50" as="geometry" />
        </mxCell>
        <mxCell id="h_VeKxa4T9KLT9ug-Xt3-39" value="Bit 1" style="rounded=0;whiteSpace=wrap;html=1;verticalAlign=middle;horizontal=0;align=left;spacingLeft=8;" vertex="1" parent="1">
          <mxGeometry x="570" y="650" width="20" height="50" as="geometry" />
        </mxCell>
        <mxCell id="h_VeKxa4T9KLT9ug-Xt3-40" value="Bit 0" style="rounded=0;whiteSpace=wrap;html=1;verticalAlign=middle;horizontal=0;align=left;spacingLeft=8;" vertex="1" parent="1">
          <mxGeometry x="590" y="650" width="20" height="50" as="geometry" />
        </mxCell>
        <mxCell id="h_VeKxa4T9KLT9ug-Xt3-41" value="CRC Delimiter" style="rounded=0;whiteSpace=wrap;html=1;verticalAlign=middle;horizontal=0;align=left;spacingLeft=0;fontSize=9;fontStyle=1" vertex="1" parent="1">
          <mxGeometry x="610" y="630" width="20" height="70" as="geometry" />
        </mxCell>
        <mxCell id="h_VeKxa4T9KLT9ug-Xt3-42" value="Base ID" style="rounded=0;whiteSpace=wrap;html=1;" vertex="1" parent="1">
          <mxGeometry x="110" y="780" width="120" height="20" as="geometry" />
        </mxCell>
        <mxCell id="h_VeKxa4T9KLT9ug-Xt3-43" value="SOF" style="rounded=0;whiteSpace=wrap;html=1;verticalAlign=middle;horizontal=0;" vertex="1" parent="1">
          <mxGeometry x="90" y="760" width="20" height="90" as="geometry" />
        </mxCell>
        <mxCell id="h_VeKxa4T9KLT9ug-Xt3-44" value="Bit 28" style="rounded=0;whiteSpace=wrap;html=1;verticalAlign=middle;horizontal=0;align=left;spacingLeft=8;" vertex="1" parent="1">
          <mxGeometry x="110" y="800" width="20" height="50" as="geometry" />
        </mxCell>
        <mxCell id="h_VeKxa4T9KLT9ug-Xt3-45" value="Bit 27" style="rounded=0;whiteSpace=wrap;html=1;verticalAlign=middle;horizontal=0;align=left;spacingLeft=8;" vertex="1" parent="1">
          <mxGeometry x="130" y="800" width="20" height="50" as="geometry" />
        </mxCell>
        <mxCell id="h_VeKxa4T9KLT9ug-Xt3-46" value="..." style="rounded=0;whiteSpace=wrap;html=1;verticalAlign=middle;horizontal=1;" vertex="1" parent="1">
          <mxGeometry x="150" y="800" width="40" height="50" as="geometry" />
        </mxCell>
        <mxCell id="h_VeKxa4T9KLT9ug-Xt3-47" value="Bit 19" style="rounded=0;whiteSpace=wrap;html=1;verticalAlign=middle;horizontal=0;align=left;spacingLeft=8;" vertex="1" parent="1">
          <mxGeometry x="190" y="800" width="20" height="50" as="geometry" />
        </mxCell>
        <mxCell id="h_VeKxa4T9KLT9ug-Xt3-48" value="Bit 18" style="rounded=0;whiteSpace=wrap;html=1;verticalAlign=middle;horizontal=0;align=left;spacingLeft=8;" vertex="1" parent="1">
          <mxGeometry x="210" y="800" width="20" height="50" as="geometry" />
        </mxCell>
        <mxCell id="h_VeKxa4T9KLT9ug-Xt3-49" value="RTR" style="rounded=0;whiteSpace=wrap;html=1;verticalAlign=middle;horizontal=0;align=left;spacingBottom=0;spacingTop=0;spacingLeft=8;spacingRight=0;spacing=2;" vertex="1" parent="1">
          <mxGeometry x="230" y="780" width="20" height="70" as="geometry" />
        </mxCell>
        <mxCell id="h_VeKxa4T9KLT9ug-Xt3-50" value="IDE" style="rounded=0;whiteSpace=wrap;html=1;verticalAlign=middle;horizontal=0;align=left;spacingLeft=8;" vertex="1" parent="1">
          <mxGeometry x="250" y="780" width="20" height="70" as="geometry" />
        </mxCell>
        <mxCell id="h_VeKxa4T9KLT9ug-Xt3-51" value="FDF" style="rounded=0;whiteSpace=wrap;html=1;verticalAlign=middle;horizontal=0;align=left;spacingRight=0;spacingLeft=8;" vertex="1" parent="1">
          <mxGeometry x="270" y="780" width="20" height="70" as="geometry" />
        </mxCell>
        <mxCell id="h_VeKxa4T9KLT9ug-Xt3-52" value="Bit 3" style="rounded=0;whiteSpace=wrap;html=1;verticalAlign=middle;horizontal=0;align=left;spacingLeft=8;" vertex="1" parent="1">
          <mxGeometry x="290" y="800" width="20" height="50" as="geometry" />
        </mxCell>
        <mxCell id="h_VeKxa4T9KLT9ug-Xt3-53" value="Bit 2" style="rounded=0;whiteSpace=wrap;html=1;verticalAlign=middle;horizontal=0;align=left;spacingLeft=8;" vertex="1" parent="1">
          <mxGeometry x="310" y="800" width="20" height="50" as="geometry" />
        </mxCell>
        <mxCell id="h_VeKxa4T9KLT9ug-Xt3-54" value="DLC" style="rounded=0;whiteSpace=wrap;html=1;" vertex="1" parent="1">
          <mxGeometry x="290" y="780" width="80" height="20" as="geometry" />
        </mxCell>
        <mxCell id="h_VeKxa4T9KLT9ug-Xt3-55" value="Bit 1" style="rounded=0;whiteSpace=wrap;html=1;verticalAlign=middle;horizontal=0;align=left;spacingLeft=8;" vertex="1" parent="1">
          <mxGeometry x="330" y="800" width="20" height="50" as="geometry" />
        </mxCell>
        <mxCell id="h_VeKxa4T9KLT9ug-Xt3-56" value="Bit 0" style="rounded=0;whiteSpace=wrap;html=1;verticalAlign=middle;horizontal=0;align=left;spacingLeft=8;" vertex="1" parent="1">
          <mxGeometry x="350" y="800" width="20" height="50" as="geometry" />
        </mxCell>
        <mxCell id="h_VeKxa4T9KLT9ug-Xt3-57" value="Arbitration field" style="rounded=0;whiteSpace=wrap;html=1;" vertex="1" parent="1">
          <mxGeometry x="110" y="760" width="140" height="20" as="geometry" />
        </mxCell>
        <mxCell id="h_VeKxa4T9KLT9ug-Xt3-58" value="Control field" style="rounded=0;whiteSpace=wrap;html=1;" vertex="1" parent="1">
          <mxGeometry x="250" y="760" width="120" height="20" as="geometry" />
        </mxCell>
        <mxCell id="h_VeKxa4T9KLT9ug-Xt3-59" value="Data field" style="rounded=0;whiteSpace=wrap;html=1;" vertex="1" parent="1">
          <mxGeometry x="370" y="760" width="120" height="20" as="geometry" />
        </mxCell>
        <mxCell id="h_VeKxa4T9KLT9ug-Xt3-60" value="Byte 0" style="rounded=0;whiteSpace=wrap;html=1;verticalAlign=middle;horizontal=0;align=left;spacingLeft=8;" vertex="1" parent="1">
          <mxGeometry x="370" y="780" width="20" height="70" as="geometry" />
        </mxCell>
        <mxCell id="h_VeKxa4T9KLT9ug-Xt3-61" value="Byte 1" style="rounded=0;whiteSpace=wrap;html=1;verticalAlign=middle;horizontal=0;align=left;spacingLeft=8;" vertex="1" parent="1">
          <mxGeometry x="390" y="780" width="20" height="70" as="geometry" />
        </mxCell>
        <mxCell id="h_VeKxa4T9KLT9ug-Xt3-62" value="..." style="rounded=0;whiteSpace=wrap;html=1;verticalAlign=middle;horizontal=1;" vertex="1" parent="1">
          <mxGeometry x="410" y="780" width="40" height="70" as="geometry" />
        </mxCell>
        <mxCell id="h_VeKxa4T9KLT9ug-Xt3-63" value="Byte n-1" style="rounded=0;whiteSpace=wrap;html=1;verticalAlign=middle;horizontal=0;align=left;spacingLeft=8;" vertex="1" parent="1">
          <mxGeometry x="450" y="780" width="20" height="70" as="geometry" />
        </mxCell>
        <mxCell id="h_VeKxa4T9KLT9ug-Xt3-64" value="Byte n" style="rounded=0;whiteSpace=wrap;html=1;verticalAlign=middle;horizontal=0;align=left;spacingLeft=8;" vertex="1" parent="1">
          <mxGeometry x="470" y="780" width="20" height="70" as="geometry" />
        </mxCell>
        <mxCell id="h_VeKxa4T9KLT9ug-Xt3-65" value="CRC field" style="rounded=0;whiteSpace=wrap;html=1;" vertex="1" parent="1">
          <mxGeometry x="490" y="760" width="140" height="20" as="geometry" />
        </mxCell>
        <mxCell id="h_VeKxa4T9KLT9ug-Xt3-66" value="CRC sequence" style="rounded=0;whiteSpace=wrap;html=1;" vertex="1" parent="1">
          <mxGeometry x="490" y="780" width="120" height="20" as="geometry" />
        </mxCell>
        <mxCell id="h_VeKxa4T9KLT9ug-Xt3-67" value="Bit 14" style="rounded=0;whiteSpace=wrap;html=1;verticalAlign=middle;horizontal=0;align=left;spacingLeft=8;" vertex="1" parent="1">
          <mxGeometry x="490" y="800" width="20" height="50" as="geometry" />
        </mxCell>
        <mxCell id="h_VeKxa4T9KLT9ug-Xt3-68" value="Bit 13" style="rounded=0;whiteSpace=wrap;html=1;verticalAlign=middle;horizontal=0;align=left;spacingLeft=8;" vertex="1" parent="1">
          <mxGeometry x="510" y="800" width="20" height="50" as="geometry" />
        </mxCell>
        <mxCell id="h_VeKxa4T9KLT9ug-Xt3-69" value="..." style="rounded=0;whiteSpace=wrap;html=1;verticalAlign=middle;horizontal=1;" vertex="1" parent="1">
          <mxGeometry x="530" y="800" width="40" height="50" as="geometry" />
        </mxCell>
        <mxCell id="h_VeKxa4T9KLT9ug-Xt3-70" value="Bit 1" style="rounded=0;whiteSpace=wrap;html=1;verticalAlign=middle;horizontal=0;align=left;spacingLeft=8;" vertex="1" parent="1">
          <mxGeometry x="570" y="800" width="20" height="50" as="geometry" />
        </mxCell>
        <mxCell id="h_VeKxa4T9KLT9ug-Xt3-71" value="Bit 0" style="rounded=0;whiteSpace=wrap;html=1;verticalAlign=middle;horizontal=0;align=left;spacingLeft=8;" vertex="1" parent="1">
          <mxGeometry x="590" y="800" width="20" height="50" as="geometry" />
        </mxCell>
        <mxCell id="h_VeKxa4T9KLT9ug-Xt3-72" value="CRC Delimiter" style="rounded=0;whiteSpace=wrap;html=1;verticalAlign=middle;horizontal=0;align=left;spacingLeft=3;fontSize=9;fontStyle=1" vertex="1" parent="1">
          <mxGeometry x="610" y="780" width="20" height="70" as="geometry" />
        </mxCell>
        <mxCell id="h_VeKxa4T9KLT9ug-Xt3-73" value="CAN标准帧" style="text;html=1;align=center;verticalAlign=middle;whiteSpace=wrap;rounded=0;" vertex="1" parent="1">
          <mxGeometry y="640" width="70" height="30" as="geometry" />
        </mxCell>
        <mxCell id="h_VeKxa4T9KLT9ug-Xt3-74" value="CANFD标准帧" style="text;html=1;align=center;verticalAlign=middle;whiteSpace=wrap;rounded=0;" vertex="1" parent="1">
          <mxGeometry x="-10" y="790" width="90" height="30" as="geometry" />
        </mxCell>
        <mxCell id="h_VeKxa4T9KLT9ug-Xt3-76" value="" style="endArrow=none;html=1;rounded=0;strokeWidth=6;spacingLeft=0;spacingBottom=0;verticalAlign=bottom;align=center;labelPosition=center;verticalLabelPosition=bottom;curved=0;" edge="1" parent="1">
          <mxGeometry width="50" height="50" relative="1" as="geometry">
            <mxPoint x="90" y="697.0000000000001" as="sourcePoint" />
            <mxPoint x="110" y="697.0000000000001" as="targetPoint" />
            <Array as="points" />
          </mxGeometry>
        </mxCell>
        <mxCell id="h_VeKxa4T9KLT9ug-Xt3-77" value="" style="endArrow=none;html=1;rounded=0;strokeWidth=6;spacingLeft=0;spacingBottom=0;verticalAlign=bottom;align=center;labelPosition=center;verticalLabelPosition=bottom;curved=0;" edge="1" parent="1">
          <mxGeometry width="50" height="50" relative="1" as="geometry">
            <mxPoint x="610" y="632.5200000000001" as="sourcePoint" />
            <mxPoint x="630" y="632.5200000000001" as="targetPoint" />
            <Array as="points" />
          </mxGeometry>
        </mxCell>
        <mxCell id="h_VeKxa4T9KLT9ug-Xt3-78" value="" style="endArrow=none;html=1;rounded=0;strokeWidth=6;spacingLeft=0;spacingBottom=0;verticalAlign=bottom;align=center;labelPosition=center;verticalLabelPosition=bottom;curved=0;" edge="1" parent="1">
          <mxGeometry width="50" height="50" relative="1" as="geometry">
            <mxPoint x="250" y="697.3100000000001" as="sourcePoint" />
            <mxPoint x="270" y="697.3100000000001" as="targetPoint" />
            <Array as="points" />
          </mxGeometry>
        </mxCell>
        <mxCell id="h_VeKxa4T9KLT9ug-Xt3-79" value="" style="endArrow=none;html=1;rounded=0;strokeWidth=6;spacingLeft=0;spacingBottom=0;verticalAlign=bottom;align=center;labelPosition=center;verticalLabelPosition=bottom;curved=0;" edge="1" parent="1">
          <mxGeometry width="50" height="50" relative="1" as="geometry">
            <mxPoint x="270" y="697.3100000000001" as="sourcePoint" />
            <mxPoint x="290" y="697.3100000000001" as="targetPoint" />
            <Array as="points" />
          </mxGeometry>
        </mxCell>
      </root>
    </mxGraphModel>
  </diagram>
</mxfile>
